<svg xmlns="http://www.w3.org/2000/svg" viewBox="0 0 120 120" role="img" aria-label="Aurea Atelier mark">
  <defs>
    <linearGradient id="gold" x1="18" y1="8" x2="102" y2="112" gradientUnits="userSpaceOnUse">
      <stop offset="0%" stop-color="#F3E0B5"/>
      <stop offset="45%" stop-color="#D4A24A"/>
      <stop offset="100%" stop-color="#8C5A1E"/>
    </linearGradient>
    <linearGradient id="bean" x1="44" y1="42" x2="76" y2="82" gradientUnits="userSpaceOnUse">
      <stop offset="0%" stop-color="#5A3318"/>
      <stop offset="100%" stop-color="#2A160C"/>
    </linearGradient>
  </defs>
  <circle cx="60" cy="60" r="54" fill="none" stroke="url(#gold)" stroke-width="3.2"/>
  <circle cx="60" cy="60" r="46.5" fill="none" stroke="#D4A24A" stroke-width="0.6" opacity="0.55"/>
  <path d="M60 22c12.4 8.6 20.2 20.8 20.2 34.4 0 16.4-9 29.6-20.2 29.6S39.8 72.8 39.8 56.4C39.8 42.8 47.6 30.6 60 22Z" fill="url(#bean)"/>
  <path d="M60 28.5c1.2 8.6 1.8 16.4 1.4 24.2-.4 8.6-1.8 16.6-4.2 24" fill="none" stroke="#F3E0B5" stroke-width="1.6" stroke-linecap="round" opacity="0.7"/>
  <path d="M48 18c4.2-6.4 10.6-10 16.8-9.2 3.4.4 6.2 2.4 7.2 5.4" fill="none" stroke="url(#gold)" stroke-width="2.2" stroke-linecap="round"/>
  <path d="M42 16c5.6-8.2 14.8-12.4 23.4-10.6" fill="none" stroke="#F3E0B5" stroke-width="1.4" stroke-linecap="round" opacity="0.7"/>
</svg>
